<?xml version="1.0" encoding="UTF-8" standalone="no"?>
<svg width="800px" height="800px" viewBox="0 0 800 800" version="1.1" xmlns="http://www.w3.org/2000/svg" xmlns:xlink="http://www.w3.org/1999/xlink">
    <!-- Generator: Sketch 45.2 (43514) - http://www.bohemiancoding.com/sketch -->
    <title>customer-voice</title>
    <desc>Created with Sketch.</desc>
    <defs>
        <linearGradient x1="50%" y1="0%" x2="50%" y2="100%" id="linearGradient-1">
            <stop stop-color="#03A9F4" offset="0%"></stop>
            <stop stop-color="#4CAF50" offset="100%"></stop>
        </linearGradient>
    </defs>
    <g id="Icons-2" stroke="none" stroke-width="1" fill="none" fill-rule="evenodd">
        <g id="customer-voice" stroke="#979797" fill-rule="nonzero">
            <g id="Group" transform="translate(190.000000, 190.000000)">
                <path d="M105.549916,195.853785 C75.8985966,195.853785 51.7777059,219.974676 51.7777059,249.625995 C51.7777059,279.272644 75.8985966,303.393535 105.549916,303.393535 C135.196565,303.393535 159.317455,279.272644 159.317455,249.625995 C159.317455,219.974676 135.201236,195.853785 105.549916,195.853785 Z M105.549916,284.751692 C86.1794022,284.751692 70.4195484,268.991838 70.4195484,249.621324 C70.4195484,230.25081 86.1794022,214.490957 105.549916,214.490957 C124.92043,214.490957 140.680284,230.25081 140.680284,249.621324 C140.680284,268.991838 124.92043,284.751692 105.549916,284.751692 Z" id="Shape" fill="url(#linearGradient-1)" opacity="0.9"></path>
                <path d="M137.536721,322.021364 L73.5631114,322.021364 C33.1358634,322.021364 0.247561426,354.909666 0.247561426,395.336914 L0.247561426,420.387328 L210.856942,420.387328 L210.856942,395.336914 C210.852271,354.914337 177.963969,322.021364 137.536721,322.021364 Z M192.215099,401.750156 L18.884733,401.750156 L18.884733,395.341585 C18.884733,365.195143 43.4119981,340.667878 73.5584404,340.667878 L137.536721,340.667878 C167.683163,340.667878 192.210428,365.195143 192.210428,395.341585 L192.210428,401.750156 L192.215099,401.750156 Z" id="Shape" fill="url(#linearGradient-1)" opacity="0.9"></path>
                <path d="M388.087568,0 L179.248486,0 C161.573534,0 147.191616,14.3819176 147.191616,32.0568692 L147.191616,173.643321 C147.191616,191.318273 161.573534,205.69552 179.248486,205.69552 L209.614464,205.69552 L212.174155,208.418695 C226.500021,223.632046 241.671333,241.059436 250.013686,250.775054 L290.585734,205.69552 L388.087568,205.69552 C405.757849,205.69552 420.144437,191.313602 420.144437,173.643321 L420.144437,32.0568692 C420.139766,14.3819176 405.757849,0 388.087568,0 Z M401.502595,173.643321 C401.502595,181.037467 395.481714,187.058348 388.087568,187.058348 L290.585734,187.058348 L282.28542,187.058348 L276.731636,193.2287 L250.247234,222.651142 C242.839075,214.248066 234.1464,204.569816 225.752666,195.652933 L223.192974,192.929758 L217.671887,187.058348 L209.609793,187.058348 L179.243815,187.058348 C171.844998,187.058348 165.828788,181.042138 165.828788,173.643321 L165.828788,32.0568692 C165.828788,24.6580523 171.849669,18.6418425 179.243815,18.6418425 L388.082897,18.6418425 C395.481714,18.6418425 401.497924,24.6627232 401.497924,32.0568692 L401.497924,173.643321 L401.502595,173.643321 Z" id="Shape" fill="url(#linearGradient-1)" opacity="0.9"></path>
                <path d="M212.63191,91.2941147 C202.393144,91.2941147 194.064803,99.6224548 194.064803,109.861222 C194.064803,120.099989 202.393144,128.428329 212.63191,128.428329 C222.870677,128.428329 231.199017,120.099989 231.199017,109.861222 C231.199017,99.6224548 222.870677,91.2941147 212.63191,91.2941147 Z" id="Shape" fill="#FFEB3B"></path>
                <path d="M283.668027,91.2941147 C273.42926,91.2941147 265.10092,99.6224548 265.10092,109.861222 C265.10092,120.099989 273.42926,128.428329 283.668027,128.428329 C293.906794,128.428329 302.235134,120.099989 302.235134,109.861222 C302.235134,99.6224548 293.906794,91.2941147 283.668027,91.2941147 Z" id="Shape" fill="#F44336"></path>
                <path d="M354.704143,91.2941147 C344.465376,91.2941147 336.137036,99.6224548 336.137036,109.861222 C336.137036,120.099989 344.465376,128.428329 354.704143,128.428329 C364.94291,128.428329 373.27125,120.099989 373.27125,109.861222 C373.27125,99.6224548 364.94291,91.2941147 354.704143,91.2941147 Z" id="Shape" fill="#BA68C8"></path>
            </g>
        </g>
    </g>
</svg>