<?xml version="1.0" encoding="UTF-8" standalone="no"?>
<svg width="800px" height="800px" viewBox="0 0 800 800" version="1.1" xmlns="http://www.w3.org/2000/svg" xmlns:xlink="http://www.w3.org/1999/xlink">
    <!-- Generator: Sketch 45.2 (43514) - http://www.bohemiancoding.com/sketch -->
    <title>customer-contact</title>
    <desc>Created with Sketch.</desc>
    <defs>
        <linearGradient x1="50%" y1="0%" x2="50%" y2="100%" id="linearGradient-1">
            <stop stop-color="#03A9F4" offset="0%"></stop>
            <stop stop-color="#4CAF50" offset="100%"></stop>
        </linearGradient>
    </defs>
    <g id="Icons-2" stroke="none" stroke-width="1" fill="none" fill-rule="evenodd" opacity="0.9">
        <g id="customer-contact" stroke="#979797" fill-rule="nonzero" fill="url(#linearGradient-1)">
            <g id="Group" transform="translate(217.000000, 154.000000)">
                <path d="M354.614149,88.9283896 C354.614149,65.3009826 335.394286,46.0860719 311.771831,46.0860719 L302.619987,46.0860719 L302.619987,42.8423177 C302.619987,19.219863 283.400124,1.77635684e-15 259.777669,1.77635684e-15 L78.5038053,1.77635684e-15 C54.8813506,1.77635684e-15 35.6664399,19.219863 35.6664399,42.8423177 L35.6664399,165.733557 C35.6664399,189.356012 54.8813506,208.575875 78.5038053,208.575875 L87.6556494,208.575875 L87.6556494,211.819629 C87.6556494,235.447036 106.875512,254.661947 130.497967,254.661947 L137.827366,254.661947 L138.594972,255.513742 L139.313055,254.661947 L210.432986,254.661947 C227.820499,273.312296 245.921143,294.775549 246.109331,294.998402 L251.67076,301.594861 L293.913849,254.661947 L311.766879,254.661947 C335.389333,254.661947 354.609196,235.442084 354.609196,211.819629 L354.609196,88.9283896 L354.614149,88.9283896 Z M87.6606017,88.9283896 L87.6606017,193.555559 L78.5087576,193.555559 C63.1714951,193.555559 50.6917077,181.075772 50.6917077,165.733557 L50.6917077,42.8423177 C50.6917077,27.5050552 63.1714951,15.0203155 78.5087576,15.0203155 L259.772717,15.0203155 C275.109979,15.0203155 287.594719,27.5001029 287.594719,42.8423177 L287.594719,46.0860719 L130.502919,46.0860719 C106.880465,46.0860719 87.6606017,65.3009826 87.6606017,88.9283896 Z M339.593833,211.819629 C339.593833,227.161844 327.109093,239.641631 311.771831,239.641631 L287.228249,239.641631 L252.012468,278.769726 C244.77221,270.340918 231.599102,255.211652 219.163885,242.003877 L216.945256,239.641631 L130.502919,239.641631 C115.165657,239.641631 102.680917,227.161844 102.680917,211.819629 L102.680917,88.9283896 C102.680917,73.5861748 115.165657,61.1063874 130.502919,61.1063874 L311.766879,61.1063874 C327.104141,61.1063874 339.588881,73.5861748 339.588881,88.9283896 L339.588881,211.819629 L339.593833,211.819629 Z" id="Shape"></path>
                <path d="M66.0339225,281.295398 C39.425233,281.295398 17.7737924,302.946838 17.7737924,329.555528 C17.7737924,356.164217 39.425233,377.815658 66.0339225,377.815658 C92.642612,377.815658 114.294053,356.164217 114.294053,329.555528 C114.294053,302.946838 92.6475643,281.295398 66.0339225,281.295398 Z M66.0339225,362.795342 C47.7054729,362.795342 32.7941079,347.883977 32.7941079,329.555528 C32.7941079,311.227078 47.7104252,296.315713 66.0339225,296.315713 C84.3574198,296.315713 99.2737371,311.227078 99.2737371,329.555528 C99.2737371,347.883977 84.3623721,362.795342 66.0339225,362.795342 Z" id="Shape"></path>
                <path d="M15.2926918,435.584198 C15.2926918,416.319764 30.9716628,400.645745 50.2360965,400.645745 L81.8317486,400.645745 C101.096182,400.645745 116.775153,416.319764 116.775153,435.584198 L116.775153,445.706692 L131.795469,445.706692 L131.795469,435.584198 C131.795469,408.034572 109.381374,385.620477 81.8317486,385.620477 L50.2360965,385.620477 C22.6864706,385.620477 0.272376312,408.034572 0.272376312,435.584198 L0.272376312,445.706692 L15.2926918,445.706692 L15.2926918,435.584198 Z" id="Shape"></path>
                <path d="M300.436024,284.113254 C273.827334,284.113254 252.175894,305.764695 252.175894,332.373385 C252.175894,358.982074 273.827334,380.638467 300.436024,380.638467 C327.044713,380.638467 348.696154,358.987026 348.696154,332.373385 C348.696154,305.759743 327.044713,284.113254 300.436024,284.113254 Z M300.436024,365.623104 C282.107574,365.623104 267.196209,350.706787 267.196209,332.378337 C267.196209,314.049887 282.112527,299.138522 300.436024,299.138522 C318.759521,299.138522 333.675839,314.049887 333.675839,332.378337 C333.675839,350.706787 318.759521,365.623104 300.436024,365.623104 Z" id="Shape"></path>
                <path d="M249.694793,438.407007 C249.694793,419.142573 265.373764,403.468554 284.638198,403.468554 L316.23385,403.468554 C335.498284,403.468554 351.177255,419.142573 351.177255,438.407007 L351.177255,445.706692 L366.19757,445.706692 L366.19757,438.407007 C366.19757,410.857381 343.783476,388.443286 316.23385,388.443286 L284.638198,388.443286 C257.088572,388.443286 234.674478,410.857381 234.674478,438.407007 L234.674478,445.706692 L249.694793,445.706692 L249.694793,438.407007 Z" id="Shape"></path>
            </g>
        </g>
    </g>
</svg>