<?xml version="1.0" encoding="UTF-8" standalone="no"?>
<svg width="800px" height="800px" viewBox="0 0 800 800" version="1.1" xmlns="http://www.w3.org/2000/svg" xmlns:xlink="http://www.w3.org/1999/xlink">
    <!-- Generator: Sketch 45.2 (43514) - http://www.bohemiancoding.com/sketch -->
    <title>marketing-sales</title>
    <desc>Created with Sketch.</desc>
    <defs>
        <linearGradient x1="50%" y1="0%" x2="50%" y2="100%" id="linearGradient-1">
            <stop stop-color="#03A9F4" offset="0%"></stop>
            <stop stop-color="#4CAF50" offset="100%"></stop>
        </linearGradient>
    </defs>
    <g id="Icons-2" stroke="none" stroke-width="1" fill="none" fill-rule="evenodd">
        <g id="marketing-sales" stroke="#979797" fill-rule="nonzero">
            <g id="Group" transform="translate(150.000000, 206.000000)">
                <polygon id="Shape" fill="url(#linearGradient-1)" opacity="0.9" points="441.766757 359.254807 441.766757 248.07684 412.31564 248.07684 412.31564 359.254807 353.413405 359.254807 353.413405 211.262943 323.962288 211.262943 323.962288 359.254807 265.060054 359.254807 265.060054 262.802398 235.608937 262.802398 235.608937 359.254807 176.706703 359.254807 176.706703 189.174606 147.255586 189.174606 147.255586 359.254807 88.3533514 359.254807 88.3533514 270.165178 58.9022342 270.165178 58.9022342 359.254807 0.736277928 359.254807 0.736277928 388.705924 499.932713 388.705924 499.932713 359.254807"></polygon>
                <path d="M162.717422,84.6231397 L261.378664,162.6686 C266.53261,167.086268 273.895389,167.086268 279.785613,162.6686 L418.205863,55.9083005 L412.31564,117.019369 L441.766757,119.228202 L450.602092,9.52279108 L340.896681,0.687455939 L338.687847,30.1385731 L395.381247,34.5562406 L270.214,131.744927 L170.816479,53.6994668 C164.926256,49.2817992 156.827199,49.2817992 151.673253,54.4357447 L47.1217874,154.569543 L67.7375694,175.921603 L162.717422,84.6231397 Z" id="Shape" fill="#BA68C8"></path>
            </g>
        </g>
    </g>
</svg>