<?xml version="1.0" encoding="UTF-8" standalone="no"?>
<svg width="800px" height="800px" viewBox="0 0 800 800" version="1.1" xmlns="http://www.w3.org/2000/svg" xmlns:xlink="http://www.w3.org/1999/xlink">
    <!-- Generator: Sketch 45.2 (43514) - http://www.bohemiancoding.com/sketch -->
    <title>software-solutions</title>
    <desc>Created with Sketch.</desc>
    <defs>
        <linearGradient x1="50%" y1="0%" x2="50%" y2="100%" id="linearGradient-1">
            <stop stop-color="#03A9F4" offset="0%"></stop>
            <stop stop-color="#4CAF50" offset="100%"></stop>
        </linearGradient>
    </defs>
    <g id="Icons-2" stroke="none" stroke-width="1" fill="none" fill-rule="evenodd" opacity="0.9">
        <g id="software-solutions" stroke="#979797" fill-rule="nonzero" fill="url(#linearGradient-1)">
            <path d="M649.812957,431.874401 C648.474434,415.74782 629.466227,404.852587 604.928573,399.516027 L604.928573,220.457787 C604.928573,209.176779 595.751794,200 584.470786,200 L170.457787,200 C159.176779,200 150,209.176779 150,220.457787 L150,504.914545 C150,516.195553 159.176779,525.372332 170.457787,525.372332 L338.568189,525.372332 L335.166351,561.950855 C335.020224,564.090155 332.682191,582.852868 297.161628,582.852868 C292.316055,582.852868 288.394005,586.780763 288.394005,591.620491 C288.394005,596.460218 292.316055,600.388113 297.161628,600.388113 L457.778635,600.388113 C462.618363,600.388113 466.546258,596.460218 466.546258,591.620491 C466.546258,586.780763 462.618363,582.852868 457.778635,582.852868 C422.258072,582.852868 419.920039,564.090155 419.744687,561.576769 L416.372075,525.372332 L485.507704,525.372332 L485.507704,557.695635 C485.507704,582.630754 526.879194,595.671132 567.748007,595.671132 C608.622665,595.671132 650,582.630754 650,557.695635 L650,433.674686 C650,433.055107 649.935704,432.458909 649.812957,431.874401 Z M344.138552,582.852868 C352.128779,573.220173 352.654836,563.213392 352.648991,563.213392 L356.179421,525.372332 L398.766688,525.372332 L402.262047,562.687335 C402.267892,562.880223 402.776414,573.103271 410.842627,582.852868 L344.138552,582.852868 Z M485.507704,507.837086 L170.457787,507.837086 C168.844544,507.837086 167.535246,506.521942 167.535246,504.914545 L167.535246,473.128989 L485.507704,473.128989 L485.507704,507.837086 Z M485.694746,431.874401 C485.572,432.458909 485.507704,433.055107 485.507704,433.674686 L485.507704,455.599589 L167.535246,455.599589 L167.535246,220.457787 C167.535246,218.844544 168.844544,217.535246 170.457787,217.535246 L584.476631,217.535246 C586.084029,217.535246 587.399172,218.844544 587.399172,220.457787 L587.399172,396.745458 C580.946202,396.067429 574.358795,395.693344 567.753852,395.693344 C527.890393,395.693344 487.670384,408.131678 485.694746,431.874401 Z M632.464754,557.695635 C632.464754,564.633747 609.622174,578.135886 567.748007,578.135886 C525.879685,578.135886 503.04295,564.627902 503.04295,557.695635 L503.04295,540.616305 C518.894812,549.652802 543.374015,554.328868 567.748007,554.328868 C592.127844,554.328868 616.612892,549.652802 632.464754,540.616305 L632.464754,557.695635 L632.464754,557.695635 Z M632.464754,516.35337 C632.464754,523.291483 609.622174,536.793622 567.748007,536.793622 C525.879685,536.793622 503.04295,523.285637 503.04295,516.35337 L503.04295,499.274041 C518.894812,508.310538 543.374015,512.986603 567.748007,512.986603 C592.127844,512.986603 616.612892,508.310538 632.464754,499.274041 L632.464754,516.35337 L632.464754,516.35337 Z M632.464754,475.016951 C632.464754,481.955063 609.622174,495.451357 567.748007,495.451357 C525.879685,495.451357 503.04295,481.949218 503.04295,475.016951 L503.04295,457.937621 C518.894812,466.974118 543.374015,471.650184 567.748007,471.650184 C592.127844,471.650184 616.612892,466.974118 632.464754,457.937621 L632.464754,475.016951 L632.464754,475.016951 Z M567.748007,454.114938 C525.879685,454.114938 503.04295,440.606953 503.04295,433.674686 C503.04295,426.742419 525.879685,413.234435 567.748007,413.234435 C609.622174,413.234435 632.464754,426.742419 632.464754,433.674686 C632.464754,440.606953 609.622174,454.114938 567.748007,454.114938 Z M296.734937,267.849711 C293.210353,264.529705 287.657525,264.687522 284.337518,268.206261 L219.772743,336.59372 C216.587174,339.972177 216.587174,345.250286 219.772743,348.634589 L284.337518,417.045428 C286.061818,418.874939 288.382315,419.798462 290.714503,419.798462 C292.871338,419.798462 295.034018,419.00353 296.729092,417.407823 C300.253677,414.087817 300.411494,408.534989 297.091487,405.016249 L238.202287,342.614154 L297.085642,280.24713 C300.411494,276.722546 300.253677,271.175563 296.734937,267.849711 Z M412.151925,268.212106 L476.70501,336.6171 C479.896425,339.995558 479.896425,345.273667 476.70501,348.652124 L412.14608,417.039583 C410.421781,418.869094 408.101284,419.792616 405.769096,419.792616 C403.612261,419.792616 401.44958,418.997685 399.754507,417.401978 C396.229922,414.076126 396.072105,408.523298 399.397957,405.004559 L458.275467,342.637535 L399.397957,280.241285 C396.07795,276.722546 396.241612,271.169718 399.760352,267.849711 C403.279091,264.529705 408.843609,264.693367 412.151925,268.212106 Z M377.297702,266.943724 C381.81595,268.679713 384.072152,273.753244 382.342007,278.277337 L330.525356,413.281195 C329.186832,416.770709 325.860981,418.910009 322.336396,418.910009 C321.290126,418.910009 320.232167,418.722966 319.197587,418.325501 C314.673494,416.589512 312.417292,411.51598 314.153281,406.997732 L365.969933,271.988029 C367.705922,267.469781 372.779453,265.219424 377.297702,266.943724 Z" id="Shape"></path>
        </g>
    </g>
</svg>