<?xml version="1.0" encoding="UTF-8" standalone="no"?>
<svg width="800px" height="800px" viewBox="0 0 800 800" version="1.1" xmlns="http://www.w3.org/2000/svg" xmlns:xlink="http://www.w3.org/1999/xlink">
    <!-- Generator: Sketch 45.2 (43514) - http://www.bohemiancoding.com/sketch -->
    <title>specific-number</title>
    <desc>Created with Sketch.</desc>
    <defs>
        <linearGradient x1="50%" y1="0%" x2="50%" y2="100%" id="linearGradient-1">
            <stop stop-color="#03A9F4" offset="0%"></stop>
            <stop stop-color="#4CAF50" offset="100%"></stop>
        </linearGradient>
    </defs>
    <g id="Icons-2" stroke="none" stroke-width="1" fill="none" fill-rule="evenodd" opacity="0.9">
        <g id="specific-number" stroke="#979797" fill-rule="nonzero" fill="url(#linearGradient-1)">
            <path d="M447.81182,591.669943 L444.382854,591.430155 C431.266459,589.55981 422.1785,577.402566 424.024866,564.286172 L471.982434,228.583194 C473.852779,215.490778 486.081959,206.37884 499.126418,208.249185 C512.242813,210.11953 521.354751,222.252795 519.484406,235.36919 L471.526837,571.072167 C469.824344,583.06156 459.561424,591.669943 447.81182,591.669943 L447.81182,591.669943 Z M303.939115,591.669943 L300.510149,591.430155 C287.417733,589.55981 278.305795,577.402566 280.17614,564.286172 L328.133708,228.583194 C330.004054,215.466799 342.041403,206.354861 355.277692,208.249185 C368.370108,210.11953 377.482046,222.276774 375.611701,235.393169 L327.654133,571.096146 C325.92766,583.06156 315.688719,591.669943 303.939115,591.669943 Z M567.681762,351.882102 L255.957568,351.882102 C242.721279,351.882102 231.978784,341.139607 231.978784,327.903318 C231.978784,314.667029 242.721279,303.924534 255.957568,303.924534 L567.681762,303.924534 C580.942029,303.924534 591.660546,314.667029 591.660546,327.903318 C591.660546,341.139607 580.942029,351.882102 567.681762,351.882102 Z M543.702978,495.754807 L231.978784,495.754807 C218.742495,495.754807 208,485.03629 208,471.776022 C208,458.515755 218.742495,447.797238 231.978784,447.797238 L543.702978,447.797238 C556.963245,447.797238 567.681762,458.515755 567.681762,471.776022 C567.681762,485.03629 556.963245,495.754807 543.702978,495.754807 Z" id="Shape"></path>
        </g>
    </g>
</svg>