<?xml version="1.0" encoding="UTF-8" standalone="no"?>
<svg width="800px" height="800px" viewBox="0 0 800 800" version="1.1" xmlns="http://www.w3.org/2000/svg" xmlns:xlink="http://www.w3.org/1999/xlink">
    <!-- Generator: Sketch 45.2 (43514) - http://www.bohemiancoding.com/sketch -->
    <title>support</title>
    <desc>Created with Sketch.</desc>
    <defs>
        <linearGradient x1="50%" y1="0%" x2="50%" y2="100%" id="linearGradient-1">
            <stop stop-color="#03A9F4" offset="0%"></stop>
            <stop stop-color="#4CAF50" offset="100%"></stop>
        </linearGradient>
    </defs>
    <g id="Icons-2" stroke="none" stroke-width="1" fill="none" fill-rule="evenodd" opacity="0.9">
        <g id="support" stroke="#979797" fill-rule="nonzero" fill="url(#linearGradient-1)">
            <path d="M354.710192,378.759143 C354.731456,400.547968 365.467583,420.932626 383.422945,433.275977 C376.76891,445.106118 367.107446,454.968265 355.416584,461.864073 L354.710192,461.199233 C346.087396,453.596873 333.734104,451.93734 323.410641,456.994473 C313.087178,462.051606 306.826575,472.829487 307.548144,484.302404 L307.548144,484.302404 C308.510627,499.256196 320.90223,510.90285 335.886925,510.937534 L337.715234,510.937534 C353.365604,509.914474 365.239398,496.42406 364.267259,480.770444 L364.267259,480.770444 C380.219954,471.693446 393.317172,458.337161 402.080002,442.209757 C433.836596,451.64892 467.682998,436.172519 481.317069,405.978295 C494.95114,375.784071 484.178811,340.160275 456.098206,322.58021 C455.767803,284.949756 453.465409,247.362478 449.200497,209.97303 C448.621907,205.64734 445.401306,202.144521 441.139319,201.20546 C434.44566,199.753222 427.654313,198.794934 420.820164,198.33834 C410.809575,197.65025 400.754449,198.012346 390.819284,199.418704 C385.169003,200.313037 381.305144,205.607267 382.176371,211.261157 C386.726443,247.532172 389.209751,284.032633 389.614262,320.585692 C368.217051,332.135118 354.831586,354.444226 354.710192,378.759143 Z M336.427107,490.285959 C332.239903,490.542965 328.627642,487.37804 328.332055,483.193382 C328.036468,479.008724 331.167966,475.367447 335.349722,475.033305 C339.531478,474.699162 343.201461,477.796967 343.574131,481.975466 C343.757523,484.03171 343.101601,486.07473 341.755527,487.639933 C340.409453,489.205135 338.487636,490.159485 336.427107,490.285959 L336.427107,490.285959 Z M404.199178,218.989915 C409.332763,218.667128 414.481556,218.667128 419.615142,218.989915 C422.897787,219.197678 426.221984,219.57165 429.546181,220.111832 C432.704168,247.079382 434.574029,283.894865 435.197316,313.937298 C427.010436,312.077872 418.535404,311.865996 410.265837,313.314011 C409.559446,283.728656 407.523375,246.580752 404.199178,218.989915 Z M420.820164,333.051431 C446.063835,333.051431 466.527875,353.515471 466.527875,378.759143 C466.527875,404.002815 446.063835,424.466854 420.820164,424.466854 C395.576492,424.466854 375.112452,404.002815 375.112452,378.759143 C375.112452,353.515471 395.576492,333.051431 420.820164,333.051431 Z M231.964211,448.816599 C229.345263,442.902237 229.345263,436.157008 231.964211,430.242647 L255.773773,376.847729 C259.185479,369.21341 260.941514,360.943048 260.926279,352.58109 C260.734281,293.53717 294.372673,239.59947 347.480063,213.795857 C352.632067,211.27149 358.854995,213.40161 361.379363,218.553614 C363.90373,223.705618 361.773609,229.928547 356.621605,232.452914 C310.683504,254.802784 281.611851,301.495089 281.827169,352.58109 C281.835135,363.85229 279.456002,374.997396 274.846354,385.28288 L250.953687,438.677797 C250.713198,439.22629 250.716021,439.850931 250.961459,440.397227 C251.206896,440.943524 251.672028,441.360461 252.241814,441.544917 L274.59704,448.941256 C278.837403,450.353578 281.699118,454.319814 281.702511,458.78919 L281.702511,513.638444 C281.702511,522.221292 288.660285,529.179066 297.243133,529.179066 L353.048093,529.179066 C357.665034,529.179066 361.727942,532.226246 363.020685,536.658509 L374.613823,577.255268 C375.290103,579.322823 377.446556,580.518839 379.558566,579.99773 L528.856572,537.531111 C530.997542,536.888065 532.246071,534.666418 531.68214,532.503263 L509.576229,455.174126 C508.647613,451.626433 509.658347,447.851973 512.235586,445.243087 C538.221156,418.35605 551.650577,381.749561 549.21728,344.436807 C546.091166,297.017555 518.159724,254.772828 475.752522,233.325516 C470.634941,230.720828 468.597839,224.460692 471.202527,219.343111 C473.807215,214.225531 480.067351,212.188428 485.184932,214.793116 C534.046872,239.623583 566.199646,288.373883 569.78575,343.065575 C572.512243,384.137358 558.583187,424.576552 531.141958,455.257231 L551.627323,527.05989 C555.136588,540.118223 547.596976,553.593666 534.632365,557.434742 L385.251254,600.109123 C372.100541,603.77221 358.449375,596.177939 354.627087,583.072613 L345.194677,549.830641 L297.284685,549.830641 C277.236933,549.807742 260.99073,533.561539 260.967831,513.513786 L260.967831,466.351739 L245.718077,461.323891 C239.573689,459.282833 234.578108,454.740023 231.964211,448.816599 Z" id="Shape"></path>
        </g>
    </g>
</svg>