<?xml version="1.0" encoding="UTF-8" standalone="no"?>
<svg width="800px" height="800px" viewBox="0 0 800 800" version="1.1" xmlns="http://www.w3.org/2000/svg" xmlns:xlink="http://www.w3.org/1999/xlink">
    <!-- Generator: Sketch 45.2 (43514) - http://www.bohemiancoding.com/sketch -->
    <title>survey</title>
    <desc>Created with Sketch.</desc>
    <defs>
        <linearGradient x1="50%" y1="0%" x2="50%" y2="100%" id="linearGradient-1">
            <stop stop-color="#03A9F4" offset="0%"></stop>
            <stop stop-color="#4CAF50" offset="100%"></stop>
        </linearGradient>
    </defs>
    <g id="Icons-2" stroke="none" stroke-width="1" fill="none" fill-rule="evenodd">
        <g id="survey" stroke="#979797" fill-rule="nonzero">
            <g id="Group" transform="translate(257.000000, 187.000000)">
                <path d="M265.947246,0 L20.582378,0 C9.2150445,4.24149047e-15 0,9.2150445 0,20.582378 L0,404.436564 C0,415.803897 9.2150445,425.018942 20.582378,425.018942 L265.947246,425.018942 C277.314579,425.018942 286.529624,415.803897 286.529624,404.436564 L286.529624,20.582378 C286.529624,9.2150445 277.314579,4.24149047e-15 265.947246,0 Z M143.264812,18.1946311 C144.768148,18.1946311 145.986843,19.4133261 145.986843,20.9166625 C145.986843,22.419999 144.768148,23.6386939 143.264812,23.6386939 C141.761475,23.6386939 140.54278,22.419999 140.54278,20.9166625 C140.54278,19.4133261 141.761475,18.1946311 143.264812,18.1946311 Z M143.264812,412.507148 C137.356963,412.507148 132.567706,407.717891 132.567706,401.810042 C132.567706,395.902194 137.356963,391.112936 143.264812,391.112936 C149.17266,391.112936 153.961918,395.902194 153.961918,401.810042 C153.961918,407.717891 149.17266,412.507148 143.264812,412.507148 Z M272.203142,382.039498 L14.3264812,382.039498 L14.3264812,38.2039498 L272.203142,38.2039498 L272.203142,382.039498 Z M150.762337,401.857797 C150.762276,404.91391 148.918717,407.668166 146.093372,408.833179 C143.268027,409.998191 140.018955,409.343848 137.864828,407.176 C135.7107,405.008152 135.076999,401.754991 136.259926,398.9371 C137.442854,396.119208 140.208759,394.293174 143.264812,394.312517 C147.413293,394.338774 150.76242,397.709232 150.762337,401.857797 L150.762337,401.857797 Z" id="Shape" fill="url(#linearGradient-1)" opacity="0.9"></path>
                <path d="M58.4042883,355.439998 C43.3109071,355.334609 31.1532262,343.027559 31.2321435,327.934016 C31.3110608,312.840473 43.5967696,300.661226 58.6904276,300.713672 C73.7840855,300.766118 85.9848607,313.030447 85.9588871,328.124174 C85.9463556,335.406384 83.0316057,342.383222 77.8599392,347.510073 C72.6882728,352.636925 65.6863315,355.490844 58.4042883,355.439998 L58.4042883,355.439998 Z M58.4042883,305.536089 C45.9937589,305.667593 36.0245654,315.807058 36.1032387,328.218034 C36.1819121,340.629011 46.2788477,350.641276 58.6900469,350.615435 C71.101246,350.589594 81.1564017,340.535371 81.1833933,328.124174 C81.1709947,322.112788 78.7578565,316.355401 74.4803381,312.131688 C70.2028196,307.907975 64.4153498,305.567906 58.4042883,305.631598 L58.4042883,305.536089 Z" id="Shape" fill="url(#linearGradient-1)" opacity="0.9"></path>
                <path d="M80.8491088,95.891914 C80.2909912,106.066468 72.9625628,114.594798 62.9878531,116.677637 C53.0131433,118.760476 42.8842615,113.877441 38.3011755,104.776432 C33.7180896,95.675422 35.8258505,84.6302593 43.4383283,77.8565429 C51.0508061,71.0828266 62.2660782,70.2729208 70.772817,75.8825953 L74.2111725,72.4442398 C63.5426919,64.7676411 48.948194,65.6458014 39.2771645,74.5462415 C29.6061349,83.4466817 27.5219306,97.9182616 34.2883246,109.186028 C41.0547187,120.453794 54.8082775,125.414656 67.2094254,121.060557 C79.6105733,116.706458 87.2440915,104.236497 85.4813377,91.2119302 L80.8491088,95.891914 Z" id="Shape" fill="url(#linearGradient-1)" opacity="0.9"></path>
                <polygon id="Shape" fill="#F44336" points="58.9295926 95.4621196 49.7128897 86.1976617 42.2631195 93.647432 58.9295926 110.26615 66.3316078 102.864135 87.2960253 81.8997174 79.89401 74.4499472"></polygon>
                <path d="M80.8491088,173.684707 C80.2909912,183.859261 72.9625628,192.387591 62.9878531,194.47043 C53.0131433,196.553269 42.8842615,191.670234 38.3011755,182.569224 C33.7180896,173.468215 35.8258505,162.423052 43.4383283,155.649336 C51.0508061,148.875619 62.2660782,148.065714 70.772817,153.675388 L74.2111725,150.237033 C63.5426919,142.560434 48.948194,143.438594 39.2771645,152.339034 C29.6061349,161.239474 27.5219306,175.711054 34.2883246,186.978821 C41.0547187,198.246587 54.8082775,203.207449 67.2094254,198.85335 C79.6105733,194.499251 87.2440915,182.02929 85.4813377,169.004723 L80.8491088,173.684707 Z" id="Shape" fill="url(#linearGradient-1)" opacity="0.9"></path>
                <polygon id="Shape" fill="#F44336" points="58.9295926 173.254912 49.7128897 163.990455 42.2631195 171.440225 58.9295926 188.058943 66.3316078 180.656928 87.2960253 159.69251 79.89401 152.24274"></polygon>
                <path d="M80.8491088,251.4775 C80.2909912,261.652054 72.9625628,270.180384 62.9878531,272.263223 C53.0131433,274.346061 42.8842615,269.463027 38.3011755,260.362017 C33.7180896,251.261008 35.8258505,240.215845 43.4383283,233.442129 C51.0508061,226.668412 62.2660782,225.858506 70.772817,231.468181 L74.2111725,228.029825 C63.5426919,220.353227 48.948194,221.231387 39.2771645,230.131827 C29.6061349,239.032267 27.5219306,253.503847 34.2883246,264.771614 C41.0547187,276.03938 54.8082775,281.000242 67.2094254,276.646143 C79.6105733,272.292044 87.2440915,259.822083 85.4813377,246.797516 L80.8491088,251.4775 Z" id="Shape" fill="url(#linearGradient-1)" opacity="0.9"></path>
                <polygon id="Shape" fill="#F44336" points="58.9295926 251.047705 49.7128897 241.783247 42.2631195 249.233018 58.9295926 265.851736 66.3316078 258.44972 87.2960253 237.485303 79.89401 230.035533"></polygon>
                <rect id="Rectangle-path" fill="url(#linearGradient-1)" opacity="0.9" x="100.285368" y="87.5825549" width="149.234179" height="14.3264812"></rect>
                <rect id="Rectangle-path" fill="url(#linearGradient-1)" opacity="0.9" x="100.285368" y="165.375348" width="149.234179" height="14.3264812"></rect>
                <rect id="Rectangle-path" fill="url(#linearGradient-1)" opacity="0.9" x="100.285368" y="243.16814" width="149.234179" height="14.3264812"></rect>
                <rect id="Rectangle-path" fill="url(#linearGradient-1)" opacity="0.9" x="100.285368" y="320.960933" width="149.234179" height="14.3264812"></rect>
            </g>
        </g>
    </g>
</svg>