<?xml version="1.0" encoding="UTF-8" standalone="no"?>
<svg width="800px" height="800px" viewBox="0 0 800 800" version="1.1" xmlns="http://www.w3.org/2000/svg" xmlns:xlink="http://www.w3.org/1999/xlink">
    <!-- Generator: Sketch 45.2 (43514) - http://www.bohemiancoding.com/sketch -->
    <title>virtual-assistant</title>
    <desc>Created with Sketch.</desc>
    <defs>
        <linearGradient x1="50%" y1="0%" x2="50%" y2="100%" id="linearGradient-1">
            <stop stop-color="#03A9F4" offset="0%"></stop>
            <stop stop-color="#4CAF50" offset="100%"></stop>
        </linearGradient>
    </defs>
    <g id="Icons-2" stroke="none" stroke-width="1" fill="none" fill-rule="evenodd">
        <g id="virtual-assistant" stroke="#979797" fill-rule="nonzero">
            <g id="Group" transform="translate(144.000000, 207.000000)">
                <g transform="translate(194.539524, 140.374125)" id="Oval">
                    <circle fill="#F44336" cx="11.6112188" cy="11.6112188" r="10.9160744"></circle>
                    <circle fill="#BA68C8" cx="59.4740067" cy="11.6112188" r="10.9160744"></circle>
                    <circle fill="#FFEB3B" cx="110.695587" cy="11.6112188" r="10.9160744"></circle>
                </g>
                <path d="M507.602337,355.192268 L469.815925,293.054614 L468.976227,292.214916 C464.777737,287.176728 458.060153,283.817935 451.342568,283.817935 L60.8829827,283.817935 C54.1653984,283.817935 47.4478141,287.176728 43.249324,292.214916 L3.78351637,355.192268 C-0.414973802,361.070155 -1.25467184,367.787739 2.1041203,374.505323 C5.46291243,381.222907 13.0201947,386.261096 22.2568731,386.261096 L489.12898,386.261096 C498.365658,386.261096 505.922941,381.222907 509.281733,374.505323 C512.640525,367.787739 511.800827,360.230456 507.602337,355.192268 Z M489.12898,366.108343 L22.2568731,366.108343 C21.4171751,366.108343 21.4171751,366.108343 20.577477,366.108343 L58.3638886,304.810386 C58.3638886,304.810386 59.2035866,303.970688 60.0432846,303.970688 L450.50287,303.970688 C451.342568,303.970688 452.182266,303.970688 452.182266,304.810386 L489.968678,366.108343 L489.968678,366.108343 C489.968678,366.108343 489.968678,366.108343 489.12898,366.108343 Z" id="Shape" fill="url(#linearGradient-1)" opacity="0.9"></path>
                <path d="M327.067259,328.321931 C325.387863,322.444045 321.189373,318.245555 315.311487,318.245555 L196.914064,318.245555 C191.036178,318.245555 185.99799,322.444045 185.158292,328.321931 L182.639198,338.398308 C181.7995,342.596798 182.639198,346.795288 185.158292,350.15408 C187.677386,353.512872 191.036178,355.192268 194.39497,355.192268 L317.830581,355.192268 C321.189373,355.192268 324.548165,353.512872 327.067259,350.15408 C329.586353,346.795288 330.426051,342.596798 329.586353,338.398308 L327.067259,328.321931 Z M320.349675,345.115892 C319.509977,345.95559 318.670279,346.795288 316.990883,346.795288 L194.39497,346.795288 C192.715574,346.795288 191.875876,345.95559 191.036178,345.115892 C190.19648,343.436496 189.356782,341.7571 190.19648,340.077704 L192.715574,330.001327 C193.555272,327.482233 195.234668,326.642535 196.914064,326.642535 L314.471789,326.642535 C316.151185,326.642535 317.830581,328.321931 318.670279,330.001327 L321.189373,340.077704 C322.029071,341.7571 321.189373,343.436496 320.349675,345.115892 Z" id="Shape" fill="url(#linearGradient-1)" opacity="0.9"></path>
                <path d="M81.8754335,263.665183 L429.510419,263.665183 C442.945588,263.665183 453.861662,252.749108 453.861662,239.31394 L453.861662,13.4351685 C453.861662,7.5572823 449.663172,3.35879213 443.785286,3.35879213 C437.9074,3.35879213 433.70891,7.5572823 433.70891,13.4351685 L433.70891,239.31394 C433.70891,241.833034 432.029514,243.51243 429.510419,243.51243 L81.8754335,243.51243 C79.3563394,243.51243 77.6769433,241.833034 77.6769433,239.31394 L77.6769433,24.351243 C77.6769433,21.8321489 79.3563394,20.1527528 81.8754335,20.1527528 L358.136087,20.1527528 C364.013973,20.1527528 368.212463,15.9542626 368.212463,10.0763764 C368.212463,4.19849017 364.013973,1.77635684e-15 358.136087,1.77635684e-15 L81.8754335,1.77635684e-15 C68.440265,1.77635684e-15 57.5241905,10.9160744 57.5241905,24.351243 L57.5241905,239.31394 C57.5241905,252.749108 68.440265,263.665183 81.8754335,263.665183 Z" id="Shape" fill="url(#linearGradient-1)" opacity="0.9"></path>
                <path d="M361.494879,136.031081 L358.975785,136.031081 C358.975785,136.031081 358.975785,136.031081 358.975785,136.031081 C357.296389,136.031081 356.456691,136.870779 355.616992,137.710478 C353.097898,112.519537 329.586353,89.0079916 314.471789,78.0919171 C296.83813,66.3361447 276.685377,59.6185604 255.692926,58.7788624 C248.975342,58.7788624 242.257758,59.6185604 235.540174,61.2979565 C232.181382,62.1376545 227.982891,62.9773525 224.624099,64.6567486 C222.105005,65.4964466 221.265307,68.0155407 222.105005,69.6949368 C222.944703,72.2140309 225.463797,73.0537289 227.143193,72.2140309 C230.501985,71.3743329 233.860778,70.5346348 237.21957,69.6949368 C243.097456,68.0155407 249.81504,68.0155407 255.692926,67.1758427 C274.166283,67.1758427 293.479338,73.893427 309.433601,84.8095014 C330.426051,99.084368 351.418502,125.115007 347.220012,147.786854 L347.220012,148.626552 C347.220012,150.305948 347.220012,151.145646 346.380314,151.985344 C346.380314,155.344136 345.540616,158.702928 345.540616,162.901419 L341.342126,201.527528 L363.174275,204.046622 C369.052161,204.046622 371.571255,197.329038 372.410953,194.809944 L372.410953,193.970246 C374.090349,188.932058 375.769745,183.893869 376.609443,178.855681 C377.449141,176.336587 377.449141,172.977795 377.449141,169.619003 C377.449141,164.580815 377.449141,158.702928 376.609443,152.825042 C376.609443,150.305948 375.769745,147.786854 375.769745,146.107458 C375.769745,143.588364 374.930047,141.06927 371.571255,138.550176 C369.052161,136.870779 366.533067,136.031081 364.853671,136.031081 C364.013973,136.031081 363.174275,136.031081 361.494879,136.031081 Z M368.212463,146.947156 C368.212463,149.46625 369.052161,151.145646 369.052161,153.66474 C369.891859,158.702928 369.891859,164.580815 369.891859,168.779305 C369.891859,172.138097 369.052161,174.657191 369.052161,177.176285 C368.212463,181.374775 367.372765,185.573265 364.853671,190.611454 L364.853671,191.451152 C364.853671,192.29085 363.174275,195.649642 363.174275,195.649642 L349.739106,193.970246 L353.097898,163.741117 C353.097898,160.382324 353.937596,156.183834 353.937596,152.825042 C353.937596,151.985344 353.937596,151.145646 354.777294,149.46625 L350.578804,148.626552 L354.777294,148.626552 C355.616992,146.107458 355.616992,143.588364 355.616992,141.06927 C356.456691,141.908968 357.296389,142.748666 358.975785,142.748666 L361.494879,142.748666 C362.334577,142.748666 364.013973,142.748666 364.853671,142.748666 C365.693369,142.748666 366.533067,142.748666 367.372765,143.588364 C368.212463,145.26776 368.212463,146.107458 368.212463,146.947156 Z" id="Shape" fill="url(#linearGradient-1)" opacity="0.9"></path>
                <path d="M201.952252,85.6491994 C203.631648,83.9698034 204.471346,82.2904073 202.79195,79.7713132 C201.952252,78.0919171 199.433158,77.2522191 196.914064,78.9316152 C181.7995,89.8476896 158.287955,112.519537 155.76886,138.550176 C154.929162,136.870779 154.089464,136.031081 152.410068,136.031081 L149.890974,136.031081 C148.211578,136.031081 147.37188,136.031081 145.692484,136.031081 C143.17339,136.031081 140.654296,136.870779 138.9749,138.550176 C136.455806,141.06927 135.616108,143.588364 134.77641,146.107458 C133.936712,148.626552 133.936712,151.145646 133.936712,152.825042 C133.097014,158.702928 133.097014,164.580815 133.097014,169.619003 C133.097014,172.977795 133.936712,176.336587 133.936712,178.855681 C134.77641,183.893869 136.455806,188.09236 138.135202,193.970246 L138.135202,194.809944 C138.9749,198.168736 141.493994,204.046622 148.211578,204.046622 C148.211578,204.046622 148.211578,204.046622 148.211578,204.046622 L169.204029,201.527528 L165.005539,163.741117 C165.005539,160.382324 164.165841,157.023532 164.165841,153.66474 C164.165841,151.985344 164.165841,151.145646 163.326143,148.626552 C159.967351,125.954705 180.959801,99.924066 201.952252,85.6491994 Z M148.211578,195.649642 C147.37188,195.649642 146.532182,193.130548 146.532182,191.451152 L146.532182,190.611454 C144.852786,185.573265 143.17339,181.374775 142.333692,177.176285 C141.493994,174.657191 141.493994,172.138097 141.493994,168.779305 C141.493994,163.741117 141.493994,158.702928 142.333692,153.66474 C142.333692,151.145646 143.17339,149.46625 143.17339,146.947156 C143.17339,145.26776 144.013088,144.428062 144.013088,144.428062 C144.013088,144.428062 145.692484,144.428062 146.532182,143.588364 C147.37188,143.588364 149.051276,143.588364 149.890974,143.588364 L152.410068,143.588364 C154.089464,143.588364 154.929162,142.748666 155.76886,141.908968 C155.76886,144.428062 155.76886,146.947156 156.608559,150.305948 C156.608559,151.145646 156.608559,152.825042 157.448257,153.66474 C157.448257,157.023532 158.287955,160.382324 158.287955,164.580815 L161.646747,194.809944 L148.211578,195.649642 Z" id="Shape" fill="url(#linearGradient-1)" opacity="0.9"></path>
                <circle id="Oval" fill="url(#linearGradient-1)" opacity="0.9" cx="391.724008" cy="10.0763764" r="9.23667837"></circle>
            </g>
        </g>
    </g>
</svg>